<?xml version="1.0" encoding="utf-8"?>
<!-- Generator: Adobe Illustrator 21.0.0, SVG Export Plug-In . SVG Version: 6.00 Build 0)  -->
<svg version="1.1" id="圖層_1" xmlns="http://www.w3.org/2000/svg" xmlns:xlink="http://www.w3.org/1999/xlink" x="0px" y="0px"
	 viewBox="0 0 19.9 19.9" style="enable-background:new 0 0 19.9 19.9;" xml:space="preserve">
<style type="text/css">
	.st0{fill:#FFD700;}
</style>
<g>
	<path class="st0" d="M10,1.4c2.2,0,4.5,0.9,6.1,2.3c1.7,1.4,2.6,3.7,2.6,6.1s-1,4.5-2.6,6.1s-3.7,2.5-6.1,2.6
		c-2.3,0-4.5-0.9-6.2-2.5c-1.6-1.6-2.6-3.9-2.6-6.2s1-4.6,2.6-6.1C5.5,2.1,7.8,1.4,10,1.4z M10,1.4c-2.2,0-4.3,1-5.8,2.6
		S2.1,7.6,2.1,9.8s0.9,4.2,2.3,5.6s3.5,2.5,5.6,2.5s4.3-0.7,5.8-2.3c1.6-1.6,2.3-3.7,2.3-5.8c0-2.2-0.9-4.2-2.3-5.8
		C14.3,2.4,12.2,1.4,10,1.4z"/>
</g>
<g>
	<path class="st0" d="M15.5,6.6c0.9,1.4,1.2,3.3,0.9,4.9c-0.2,1.7-1.4,3.2-2.9,4.1s-3.3,1.1-5,0.8s-3.1-1.4-4.1-2.9
		c-0.9-1.5-1.2-3.3-0.9-5c0.4-1.7,1.5-3.3,3-4.2s3.4-1.2,5-0.8C13.2,3.9,14.6,5.1,15.5,6.6z M15.5,6.6c-0.9-1.4-2.4-2.4-4-2.7
		s-3.2,0-4.6,0.9S4.5,7,4.1,8.5s-0.2,3.2,0.7,4.6S7,15.7,8.6,16c1.7,0.4,3.4,0,4.7-0.8c1.4-0.9,2.4-2.2,2.8-3.8
		C16.6,9.8,16.4,8,15.5,6.6z"/>
</g>
</svg>
