<?xml version="1.0" encoding="utf-8"?>
<!-- Generator: Adobe Illustrator 21.0.0, SVG Export Plug-In . SVG Version: 6.00 Build 0)  -->
<svg version="1.1" id="圖層_1" xmlns="http://www.w3.org/2000/svg" xmlns:xlink="http://www.w3.org/1999/xlink" x="0px" y="0px"
	 viewBox="0 0 48 48" style="enable-background:new 0 0 48 48;" xml:space="preserve">
<style type="text/css">
	.st0{fill:#D4AF37;stroke:#FFD700;stroke-width:4;}
	.st1{fill:none;stroke:#FFD700;stroke-width:4;}
</style>
<g>
	<path class="st0" d="M37.8,12.5c3.4,5.9,2.6,13.1-1.4,18.1l-5,2.9l-5,2.9c-6.3,1-12.9-1.9-16.3-7.8C5.7,20.9,8.3,11.1,16,6.7
		S33.4,4.9,37.8,12.5z"/>
	<path class="st1" d="M36.4,30.6l3.5,7.4c0.2,0.5,0,1-0.4,1.3l-7.1,4.1c-0.5,0.3-1,0.1-1.3-0.3l-4.7-6.7"/>
	<path class="st1" d="M17.3,20.9l3,5.2l3.7-5.6l6.7-0.4l-3-5.2"/>
</g>
</svg>
