<?xml version="1.0" encoding="UTF-8"?><svg width="48" height="48" viewBox="0 0 48 48" fill="none" xmlns="http://www.w3.org/2000/svg"><path d="M6 44H42" stroke="#FFD700" stroke-width="4" stroke-linecap="butt" stroke-linejoin="miter"/><path d="M17 20H31" stroke="#FFD700" stroke-width="4" stroke-linecap="butt" stroke-linejoin="miter"/><path d="M19 20H24H29L32 44H16L19 20Z" fill="#D4AF37" stroke="#FFD700" stroke-width="4" stroke-linejoin="miter"/><path d="M19 9L21 20H27L29 9" stroke="#FFD700" stroke-width="4" stroke-linecap="butt" stroke-linejoin="miter"/><path d="M32 12L29 9L24 4L19 9L16 12" stroke="#FFD700" stroke-width="4" stroke-linecap="butt" stroke-linejoin="miter"/><path d="M37 7L40 4" stroke="#FFD700" stroke-width="4" stroke-linecap="butt" stroke-linejoin="miter"/><path d="M11 7L8 4" stroke="#FFD700" stroke-width="4" stroke-linecap="butt" stroke-linejoin="miter"/><path d="M37 19L40 22" stroke="#FFD700" stroke-width="4" stroke-linecap="butt" stroke-linejoin="miter"/><path d="M11 19L8 22" stroke="#FFD700" stroke-width="4" stroke-linecap="butt" stroke-linejoin="miter"/><path d="M38 13H42" stroke="#FFD700" stroke-width="4" stroke-linecap="butt" stroke-linejoin="miter"/><path d="M10 13H6" stroke="#FFD700" stroke-width="4" stroke-linecap="butt" stroke-linejoin="miter"/><path d="M18 28L30 28" stroke="#FFD700" stroke-width="4" stroke-linecap="butt" stroke-linejoin="miter"/><path d="M17 36H31" stroke="#FFD700" stroke-width="4" stroke-linecap="butt" stroke-linejoin="miter"/><path d="M29 20L32 44" stroke="#FFD700" stroke-width="4" stroke-linejoin="miter"/><path d="M19 20L16 44" stroke="#FFD700" stroke-width="4" stroke-linejoin="miter"/></svg>