<?xml version="1.0" encoding="utf-8"?>
<!-- Generator: Adobe Illustrator 21.0.0, SVG Export Plug-In . SVG Version: 6.00 Build 0)  -->
<svg version="1.1" id="圖層_1" xmlns="http://www.w3.org/2000/svg" xmlns:xlink="http://www.w3.org/1999/xlink" x="0px" y="0px"
	 viewBox="0 0 19.9 19.9" style="enable-background:new 0 0 19.9 19.9;" xml:space="preserve">
<style type="text/css">
	.st0{fill:#FFD700;}
	.st1{opacity:0.6;}
	.st2{fill:url(#SVGID_1_);}
	.st3{fill:#262626;}
</style>
<g>
	<g>
		<path class="st0" d="M17.1,13.6c0.5,0.3,0.9,0.9,1.1,1.5c0.2,0.6,0,1.3-0.3,1.9s-0.9,0.9-1.6,1.1s-1.3,0.1-1.8-0.2
			c-0.5-0.3-0.9-0.9-1.1-1.5c-0.1-0.6,0-1.4,0.3-1.9c0.4-0.6,1-1,1.6-1.1C15.9,13.1,16.6,13.3,17.1,13.6z M17.1,13.6
			c-0.5-0.3-1.2-0.4-1.8-0.2c-0.6,0.2-1.1,0.6-1.4,1.1c-0.3,0.5-0.5,1.1-0.4,1.7s0.4,1.1,1,1.4c0.5,0.3,1.2,0.5,1.7,0.3
			c0.6-0.2,1.1-0.6,1.5-1.1c0.3-0.5,0.5-1.1,0.3-1.7C18,14.5,17.7,13.9,17.1,13.6z"/>
		<g>
			<path class="st0" d="M18.3,14.4c0.1,0.2,0.2,0.4,0.2,0.6l0,0c0.4,1.4-0.5,2.6-1.6,3.1c-1.1,0.6-2.6,0.2-3.3-0.8
				c-0.7-1-0.5-2.5,0.3-3.3c0.4-0.4,0.9-0.7,1.5-0.8c0.6-0.1,1.2,0.1,1.6,0.4L18.3,14.4z M15.7,13.3c-0.1,0-0.1,0-0.2,0
				c-0.6,0.1-1,0.4-1.4,0.8c-0.7,0.8-0.9,2.1-0.2,3c0.6,0.9,1.9,1.1,2.8,0.6c0.5-0.2,0.8-0.6,1.1-1.1c0.2-0.5,0.3-1,0.1-1.4l0,0l0,0
				c-0.2-0.5-0.5-1-1-1.2L15.7,13.3z"/>
			<path class="st0" d="M16.9,13.9c-0.9-0.6-2.2-0.2-2.7,0.7c-0.3,0.5-0.5,1-0.4,1.5c0.1,0.5,0.4,1,0.9,1.3c0.5,0.3,1.1,0.4,1.6,0.3
				c0.6-0.1,1-0.5,1.4-1c0.7-1,0.5-2.5-0.6-3.2L16.9,13.9z M17.1,13.6c1.1,0.6,1.4,2.2,0.7,3.3c-0.3,0.5-0.8,1-1.4,1.2
				c-0.6,0.2-1.3,0.1-1.9-0.2c-0.6-0.3-1-0.9-1.2-1.5c-0.1-0.7,0-1.4,0.4-1.9c0.3-0.6,0.9-1,1.6-1.2c0.7-0.2,1.4-0.2,2,0.2
				L17.1,13.6z"/>
		</g>
	</g>
</g>
<g>
	<g class="st1">
		<path d="M1.8,0.8C3.5,2,5.2,3.2,6.9,4.4C8,5.1,9.1,5.9,10.3,6.7c0.5,0.4,0.6,0.6,0.5,1.1c-0.2,0.7-0.4,1.4-0.4,2.2
			c0.1,1.2,0.5,2.3,1.2,3.3c0.2,0.2,0.3,0.3,0.5,0.2c0.1-0.1,0.2-0.1,0.3-0.2c0.3-0.1,0.6,0,0.9,0.4c0.3,0.4,0.5,0.9,0.8,1.3
			c0.1,0.2,0.1,0.4-0.1,0.5c-2.1,1.2-4.3,2.3-6.4,3.5c-0.2,0.1-0.3,0-0.5-0.2c-0.2-0.4-0.5-0.8-0.7-1.2c-0.3-0.5-0.3-0.8,0.1-1
			c0.5-0.3,0.5-0.3,0.1-0.9c-1-1.8-2.3-2.8-3.9-3.2c-0.1,0-0.2,0-0.2-0.1c-0.6-0.1-0.8-0.4-0.8-1C1.4,9.2,1.3,7,1.1,4.9
			C1.1,3.9,1,2.8,0.9,1.8c0-0.2,0-0.3,0-0.5c0.2,0.1,0.2,0.2,0.3,0.3C2,3,2.8,4.4,3.6,5.7C3.8,6,3.8,6.2,3.7,6.5
			C3.3,7.2,3.3,8,3.8,8.9c0.5,0.9,1.2,1.4,2,1.6c1.1,0.2,1.8-0.6,1.6-2C7.3,7.3,6.2,6.1,5.1,5.9c-0.5-0.1-0.7-0.3-1-0.8
			C3.4,3.9,2.7,2.6,1.9,1.3C1.8,1.2,1.7,1,1.7,0.8C1.7,0.8,1.8,0.8,1.8,0.8z"/>
		<path d="M1.9,0.8L7,4.3l2.6,1.8l0.6,0.4c0.2,0.1,0.5,0.3,0.6,0.6c0.1,0.3,0,0.6,0,0.9c-0.1,0.3-0.1,0.5-0.2,0.7
			c-0.2,1,0,2,0.3,2.9c0.2,0.5,0.4,0.9,0.7,1.3c0.1,0.1,0.2,0.2,0.2,0.3c0,0,0,0,0,0c-0.1,0-0.1,0-0.1,0c0.1-0.1,0.3-0.2,0.4-0.2
			c0.2-0.1,0.4-0.1,0.6,0c0.4,0.2,0.6,0.5,0.7,0.7l0.4,0.7l0.2,0.3c0.1,0.1,0.2,0.2,0.2,0.5c0,0.1,0,0.4-0.1,0.6
			C14.1,15.9,14,15.9,14,16l-0.3,0.2l-2.7,1.6c-0.9,0.5-1.8,1-2.7,1.5l-0.3,0.2l-0.2,0.1c-0.1,0.1-0.4,0.1-0.6,0.1
			c-0.5-0.2-0.5-0.4-0.6-0.6l-0.2-0.3l-0.4-0.7c-0.1-0.2-0.3-0.5-0.4-1c0-0.3,0.1-0.7,0.3-0.8C6,16.1,6.2,16,6.2,15.9
			c0,0,0.1-0.1,0,0c0,0-0.1,0.2-0.1,0.3c0,0.1,0-0.1-0.1-0.1c-0.2-0.4-0.5-0.8-0.8-1.2c-0.6-0.7-1.3-1.3-2.2-1.6
			c-0.2-0.1-0.4-0.2-0.7-0.2c-0.2,0-0.6-0.1-1-0.4C1,12.3,1,11.8,0.9,11.5l0-0.8L0.7,7.6L0.5,4.5L0.4,2.9l0-0.8l0-0.4
			c0-0.1-0.1-0.4,0.1-0.7l0.2-0.4l0.4,0.1C1.5,1,1.6,1.3,1.6,1.4l0.2,0.3l0.4,0.7l0.7,1.3L3.6,5C3.7,5.2,3.8,5.4,4,5.7
			C4,5.8,4.1,6,4.1,6.3c0,0.2-0.1,0.4-0.1,0.5C3.5,7.5,3.7,8.5,4.3,9.3c0.3,0.4,0.6,0.7,1.1,0.9c0.4,0.2,0.9,0.3,1.3,0.1
			C7,10,7.2,9.5,7.3,9.1c0.1-0.5,0-1-0.2-1.4C6.6,6.8,5.8,6.1,4.8,6c-0.6-0.2-0.7-0.8-1-1.2L3.1,3.5L2.3,2.1L2,1.5
			C1.8,1.2,1.7,1,1.6,0.8l0-0.1l0.1,0L1.9,0.8z M1.8,0.9L1.7,0.8l0.1,0C1.7,1,1.9,1.2,2,1.4l0.4,0.7l0.8,1.3l0.8,1.3
			c0.3,0.4,0.5,0.9,0.9,1.1c1,0.1,1.9,0.8,2.4,1.8c0.2,0.5,0.3,1,0.3,1.5c0,0.5-0.2,1.1-0.7,1.3c-0.5,0.3-1,0.2-1.5,0
			c-0.5-0.2-0.9-0.5-1.2-0.9C3.7,9.1,3.5,8.6,3.4,8.1c-0.1-0.5,0-1,0.2-1.5c0.3-0.5-0.1-0.9-0.3-1.3L2.5,3.9L1.7,2.6L1.3,2
			C1.2,1.8,1.1,1.4,0.9,1.4l0.1,0C0.9,1.5,1,1.8,1,2.1l0.1,0.8l0.1,1.6l0.2,3.1l0.2,3.1c0.1,0.5,0,1.1,0.3,1.4
			c0.2,0.2,0.4,0.2,0.7,0.3c0.3,0.1,0.5,0.1,0.8,0.2c1,0.4,1.9,1,2.5,1.9c0.3,0.4,0.6,0.9,0.8,1.3c0.1,0.1,0.1,0.2,0.1,0.4
			c0,0.2-0.2,0.3-0.2,0.4c-0.2,0.1-0.5,0.3-0.4,0.5c0.1,0.5,0.4,0.9,0.7,1.4C7,18.6,7.1,18.9,7.3,19c0.1,0,0.2-0.1,0.3-0.1l0.3-0.2
			l2.8-1.5l2.8-1.5l0.3-0.2c0.1-0.1,0.2-0.1,0.2-0.2c-0.1-0.2-0.2-0.4-0.4-0.7L13.2,14c-0.1-0.2-0.3-0.5-0.5-0.6
			c-0.2-0.1-0.5,0.1-0.7,0.2c-0.1,0.1-0.3,0-0.4-0.1c-0.1-0.1-0.2-0.2-0.2-0.3c-0.3-0.4-0.5-0.9-0.7-1.4c-0.4-1-0.5-2.1-0.2-3.1
			c0.1-0.3,0.1-0.5,0.2-0.8c0.1-0.2,0.2-0.5,0.1-0.7c-0.1-0.2-0.3-0.4-0.5-0.5L9.5,6.2L7,4.4L1.8,0.9z"/>
	</g>
	<g>
		<g>
			<g>
				<linearGradient id="SVGID_1_" gradientUnits="userSpaceOnUse" x1="14.5732" y1="9.3502" x2="1.4644" y2="9.3502">
					<stop  offset="0.6588" style="stop-color:#281D1A"/>
					<stop  offset="0.8303" style="stop-color:#B0B0B0"/>
					<stop  offset="0.9469" style="stop-color:#000000"/>
				</linearGradient>
				<path class="st2" d="M2.4,0.3c1.7,1.2,3.4,2.4,5.1,3.5c1.1,0.8,2.2,1.5,3.3,2.3c0.5,0.4,0.6,0.6,0.5,1.1
					c-0.2,0.7-0.4,1.4-0.4,2.2c0.1,1.2,0.5,2.3,1.2,3.3c0.2,0.2,0.3,0.3,0.5,0.2c0.1-0.1,0.2-0.1,0.3-0.2c0.3-0.1,0.6,0,0.9,0.4
					c0.3,0.4,0.5,0.9,0.8,1.3c0.1,0.2,0.1,0.4-0.1,0.5c-2.1,1.2-4.3,2.3-6.4,3.5c-0.2,0.1-0.3,0-0.5-0.2c-0.2-0.4-0.5-0.8-0.7-1.2
					c-0.3-0.5-0.3-0.8,0.1-1c0.5-0.3,0.5-0.3,0.1-0.9c-1-1.8-2.3-2.8-3.9-3.2c-0.1,0-0.2,0-0.2-0.1c-0.6-0.1-0.8-0.4-0.8-1
					C2,8.6,1.8,6.5,1.7,4.3c-0.1-1-0.1-2.1-0.2-3.1c0-0.2,0-0.3,0-0.5C1.7,0.8,1.7,1,1.8,1.1c0.8,1.4,1.6,2.7,2.4,4.1
					c0.2,0.3,0.2,0.5,0.1,0.8C3.9,6.6,3.8,7.4,4.3,8.3c0.5,0.9,1.2,1.4,2,1.6c1.1,0.2,1.8-0.6,1.6-2C7.8,6.7,6.8,5.5,5.7,5.4
					c-0.5-0.1-0.7-0.3-1-0.8C4,3.3,3.2,2,2.5,0.8C2.4,0.6,2.3,0.4,2.2,0.2C2.3,0.2,2.4,0.2,2.4,0.3z"/>
				<path class="st0" d="M2.4,0.2l5.2,3.5l2.6,1.8l0.6,0.4c0.2,0.1,0.5,0.3,0.6,0.6c0.1,0.3,0,0.6,0,0.9c-0.1,0.3-0.1,0.5-0.2,0.7
					c-0.2,1,0,2,0.3,2.9c0.2,0.5,0.4,0.9,0.7,1.3c0.1,0.1,0.2,0.2,0.2,0.3c0,0,0,0,0,0c-0.1,0-0.1,0-0.1,0c0.1-0.1,0.3-0.2,0.4-0.2
					c0.2-0.1,0.4-0.1,0.6,0c0.4,0.2,0.6,0.5,0.7,0.7l0.4,0.7l0.2,0.3c0.1,0.1,0.2,0.2,0.2,0.5c0,0.1,0,0.4-0.1,0.6
					c-0.1,0.1-0.2,0.2-0.3,0.2l-0.3,0.2l-2.7,1.6c-0.9,0.5-1.8,1-2.7,1.5l-0.3,0.2L8.3,19c-0.1,0.1-0.4,0.1-0.6,0.1
					c-0.5-0.2-0.5-0.4-0.6-0.6l-0.2-0.3l-0.4-0.7c-0.1-0.2-0.3-0.5-0.4-1c0-0.3,0.1-0.7,0.3-0.8c0.2-0.2,0.3-0.3,0.4-0.3
					c0,0,0.1-0.1,0,0c0,0-0.1,0.2-0.1,0.3c0,0.1,0-0.1-0.1-0.1c-0.2-0.4-0.5-0.8-0.8-1.2c-0.6-0.7-1.3-1.3-2.2-1.6
					c-0.2-0.1-0.4-0.2-0.7-0.2c-0.2,0-0.6-0.1-1-0.4c-0.4-0.4-0.5-0.8-0.5-1.1l0-0.8L1.3,7L1.1,3.9L1,2.3l0-0.8l0-0.4
					C1,1,0.9,0.8,1.1,0.5l0.2-0.4l0.4,0.1c0.4,0.1,0.5,0.5,0.5,0.5l0.2,0.3l0.4,0.7l0.7,1.3l0.7,1.3c0.1,0.2,0.2,0.4,0.4,0.7
					c0.1,0.1,0.1,0.3,0.1,0.5c0,0.2-0.1,0.4-0.1,0.5C4.1,7,4.3,7.9,4.9,8.7c0.3,0.4,0.6,0.7,1.1,0.9c0.4,0.2,0.9,0.3,1.3,0.1
					C7.6,9.4,7.8,9,7.8,8.5c0.1-0.5,0-1-0.2-1.4C7.2,6.2,6.4,5.5,5.4,5.4c-0.6-0.2-0.7-0.8-1-1.2L3.6,2.9L2.9,1.6L2.5,0.9
					C2.4,0.7,2.2,0.5,2.2,0.2l0-0.1l0.1,0L2.4,0.2z M2.4,0.3L2.2,0.2l0.1,0c0,0.2,0.2,0.4,0.3,0.7L3,1.5l0.8,1.3l0.8,1.3
					c0.3,0.4,0.5,0.9,0.9,1.1c1,0.1,1.9,0.8,2.4,1.8C8,7.5,8.1,8,8,8.5C8,9,7.8,9.6,7.3,9.8c-0.5,0.3-1,0.2-1.5,0
					C5.4,9.6,4.9,9.3,4.6,8.9C4.3,8.5,4.1,8,4,7.5C3.9,7,3.9,6.5,4.1,6C4.4,5.5,4,5.1,3.8,4.7L3,3.4L2.3,2L1.9,1.4
					C1.7,1.2,1.7,0.9,1.5,0.8l0.1,0c-0.1,0.2,0,0.5,0,0.7l0.1,0.8l0.1,1.6L1.9,7l0.2,3.1c0.1,0.5,0,1.1,0.3,1.4
					c0.2,0.2,0.4,0.2,0.7,0.3c0.3,0.1,0.5,0.1,0.8,0.2c1,0.4,1.9,1,2.5,1.9c0.3,0.4,0.6,0.9,0.8,1.3c0.1,0.1,0.1,0.2,0.1,0.4
					c0,0.2-0.2,0.3-0.2,0.4c-0.2,0.1-0.5,0.3-0.4,0.5c0.1,0.5,0.4,0.9,0.7,1.4c0.1,0.2,0.2,0.5,0.4,0.6c0.1,0,0.2-0.1,0.3-0.1
					l0.3-0.2l2.8-1.5l2.8-1.5l0.3-0.2c0.1-0.1,0.2-0.1,0.2-0.2c-0.1-0.2-0.2-0.4-0.4-0.7l-0.4-0.7c-0.1-0.2-0.3-0.5-0.5-0.6
					c-0.2-0.1-0.5,0.1-0.7,0.2c-0.1,0.1-0.3,0-0.4-0.1c-0.1-0.1-0.2-0.2-0.2-0.3c-0.3-0.4-0.5-0.9-0.7-1.4c-0.4-1-0.5-2.1-0.2-3.1
					c0.1-0.3,0.1-0.5,0.2-0.8c0.1-0.2,0.2-0.5,0.1-0.7c-0.1-0.2-0.3-0.4-0.5-0.5l-0.6-0.4L7.5,3.9L2.4,0.3z"/>
			</g>
		</g>
	</g>
</g>
<g>
	<circle class="st3" cx="6.5" cy="7.4" r="1.2"/>
	<path class="st0" d="M7.7,7.4c0,0.3-0.1,0.6-0.3,0.9C7.2,8.7,6.9,9,6.5,9.1c-0.4,0.1-1,0-1.4-0.3C4.7,8.5,4.4,8,4.4,7.4
		c0-0.5,0.3-1.1,0.7-1.4c0.4-0.3,1-0.4,1.4-0.3c0.4,0.1,0.8,0.4,0.9,0.7C7.6,6.8,7.7,7.1,7.7,7.4z M7.6,7.4c0-0.6-0.5-1.1-1.1-1.1
		c-0.6,0-1.1,0.5-1.1,1.1c0,0.6,0.5,1.1,1.1,1.1C7.1,8.5,7.6,8,7.6,7.4z"/>
</g>
</svg>
